<svg width="24" height="24" viewBox="0 0 24 24" fill="none" xmlns="http://www.w3.org/2000/svg">
<g id="lets-icons:print-light">
<g id="Group">
<path id="Vector" d="M18 13.5H18.5C19.443 13.5 19.914 13.5 20.207 13.207C20.5 12.914 20.5 12.443 20.5 11.5V10.5C20.5 8.614 20.5 7.672 19.914 7.086C19.328 6.5 18.386 6.5 16.5 6.5H7.5C5.614 6.5 4.672 6.5 4.086 7.086C3.5 7.672 3.5 8.614 3.5 10.5V12.5C3.5 12.971 3.5 13.207 3.646 13.354C3.793 13.5 4.029 13.5 4.5 13.5H6" stroke="black"/>
<path id="Vector_2" d="M6.5 19.806V11.5C6.5 10.557 6.5 10.086 6.793 9.793C7.086 9.5 7.557 9.5 8.5 9.5H15.5C16.443 9.5 16.914 9.5 17.207 9.793C17.5 10.086 17.5 10.557 17.5 11.5V19.806C17.5 20.123 17.5 20.281 17.396 20.356C17.292 20.431 17.142 20.381 16.842 20.281L14.674 19.558C14.6193 19.5338 14.5607 19.5195 14.501 19.516C14.4413 19.5229 14.3834 19.5405 14.33 19.568L12.186 20.426C12.1282 20.4563 12.065 20.475 12 20.481C11.935 20.475 11.8718 20.4563 11.814 20.426L9.67 19.568C9.586 19.534 9.544 19.518 9.5 19.516C9.456 19.514 9.412 19.529 9.326 19.558L7.158 20.281C6.858 20.381 6.708 20.431 6.604 20.356C6.5 20.281 6.5 20.123 6.5 19.806Z" stroke="black"/>
<path id="Vector_3" d="M9.5 13.5H13.5M9.5 16.5H14.5" stroke="black" stroke-linecap="round"/>
<path id="Vector_4" d="M17.5 6.5V6.1C17.5 4.403 17.5 3.554 16.973 3.027C16.446 2.5 15.597 2.5 13.9 2.5H10.1C8.403 2.5 7.554 2.5 7.027 3.027C6.5 3.554 6.5 4.403 6.5 6.1V6.5" stroke="black"/>
</g>
</g>
</svg>
